<?xml version="1.0" encoding="UTF-8"?>
<svg width="91px" height="39px" viewBox="0 0 91 39" version="1.1" xmlns="http://www.w3.org/2000/svg" xmlns:xlink="http://www.w3.org/1999/xlink">
    <!-- Generator: Sketch 51.3 (57544) - http://www.bohemiancoding.com/sketch -->
    <title>tâche</title>
    <desc>Created with Sketch.</desc>
    <defs></defs>
    <g id="Page-1" stroke="none" stroke-width="1" fill="none" fill-rule="evenodd">
        <path d="M70.5595662,34.8234752 C70.5240896,34.8889512 70.4875675,34.9561262 70.45,35.025 C70.1499985,35.5750028 69.7583357,36.116664 69.275,36.65 C68.7916642,37.183336 68.2000035,37.6416648 67.5,38.025 C66.7999965,38.4083352 65.9666715,38.6 65,38.6 C63.933328,38.6 63.033337,38.366669 62.3,37.9 C61.566663,37.433331 61.2,36.666672 61.2,35.6 C61.2,35.1666645 61.2583327,34.716669 61.375,34.25 C61.4916672,33.783331 61.6333325,33.283336 61.8,32.75 L66,20.8 C66.266668,19.999996 66.4,19.333336 66.4,18.8 C66.4,18.3666645 66.2583347,17.950002 65.975,17.55 C65.6916652,17.149998 65.183337,16.95 64.45,16.95 C63.716663,16.95 62.8666715,17.2249973 61.9,17.775 C60.9333285,18.3250028 59.9666715,19.0749953 59,20.025 C58.0333285,20.9750047 57.1250042,22.0916603 56.275,23.375 C55.4249957,24.6583397 54.733336,26.0499925 54.2,27.55 L50.45,38 L47,38 L47.9725863,35.3127802 C47.483657,35.850708 46.9344655,36.3464443 46.325,36.8 C45.6083297,37.333336 44.783338,37.766665 43.85,38.1 C42.916662,38.433335 41.8666725,38.6 40.7,38.6 C39.4666605,38.6 38.3666715,38.400002 37.4,38 C36.4333285,37.599998 35.6250033,37.0583368 34.975,36.375 C34.4171236,35.7885146 33.9697466,35.1222367 33.6328596,34.3761514 C33.520565,34.5823771 33.3929453,34.806993 33.25,35.05 C32.916665,35.6166695 32.483336,36.1583308 31.95,36.675 C31.416664,37.1916693 30.8000035,37.6416648 30.1,38.025 C29.3999965,38.4083352 28.583338,38.6 27.65,38.6 C25.449989,38.6 24.35,37.60001 24.35,35.6 C24.35,35.3666655 24.3999995,34.9583363 24.5,34.375 C24.6000005,33.7916637 24.7333325,33.266669 24.9,32.8 L24.8,32.8 C24.333331,33.3666695 23.800003,33.9916632 23.2,34.675 C22.599997,35.3583367 21.9250037,35.9916637 21.175,36.575 C20.4249962,37.1583362 19.6000045,37.6416648 18.7,38.025 C17.7999955,38.4083352 16.8000055,38.6 15.7,38.6 C14.9999965,38.6 14.3250033,38.4750012 13.675,38.225 C13.0249968,37.9749987 12.4500025,37.5916692 11.95,37.075 C11.4499975,36.5583307 11.0583347,35.900004 10.775,35.1 C10.6911587,34.8632715 10.6197222,34.6134099 10.5606906,34.3504145 C10.4695928,34.5207512 10.3660294,34.7122794 10.25,34.925 C9.9499985,35.4750027 9.5500025,36.0249973 9.05,36.575 C8.5499975,37.1250028 7.92500375,37.599998 7.175,38 C6.42499625,38.400002 5.5333385,38.6 4.5,38.6 C3.233327,38.6 2.2833365,38.2916697 1.65,37.675 C1.0166635,37.0583302 0.7,36.316671 0.7,35.45 C0.7,34.78333 0.82499875,34.0250042 1.075,33.175 C1.32500125,32.3249957 1.583332,31.5500035 1.85,30.85 L6.75,17.25 L2.25,17.25 L2.45,16.55 L6.95,16.55 L8.75,11.65 L12.25,11.65 L10.45,16.55 L15.9,16.55 L15.7,17.25 L10.25,17.25 L4.55,33.15 C4.3833325,33.6500025 4.2166675,34.166664 4.05,34.7 C3.8833325,35.233336 3.8,35.766664 3.8,36.3 C3.8,36.8000025 3.92499875,37.1999985 4.175,37.5 C4.42500125,37.8000015 4.8333305,37.95 5.4,37.95 C6.000003,37.95 6.566664,37.7666685 7.1,37.4 C7.633336,37.0333315 8.1166645,36.6083357 8.55,36.125 C8.9833355,35.6416643 9.3499985,35.1500025 9.65,34.65 C9.9500015,34.1499975 10.166666,33.7500015 10.3,33.45 L10.4181413,33.4992255 C10.3727137,33.1068682 10.35,32.6904603 10.35,32.25 C10.35,30.91666 10.616664,29.58334 11.15,28.25 C11.683336,26.91666 12.3749957,25.6416727 13.225,24.425 C14.0750043,23.2083273 15.0583277,22.0833385 16.175,21.05 C17.2916722,20.0166615 18.4249942,19.1166705 19.575,18.35 C20.7250057,17.5833295 21.8583278,16.9833355 22.975,16.55 C24.0916722,16.1166645 25.083329,15.9 25.95,15.9 C26.950005,15.9 27.7999965,16.1833305 28.5,16.75 C29.2000035,17.3166695 29.55,18.066662 29.55,19 L29.65,19 L30.5,16.55 L34,16.55 L28.55,31.7 C28.2499985,32.566671 27.9916677,33.399996 27.775,34.2 C27.5583322,35.000004 27.45,35.7166635 27.45,36.35 C27.45,37.216671 27.8666625,37.65 28.7,37.65 C29.36667,37.65 29.966664,37.4583353 30.5,37.075 C31.033336,36.6916647 31.4916647,36.2583358 31.875,35.775 C32.2583353,35.2916642 32.5749988,34.8083357 32.825,34.325 C33.0251962,33.9379541 33.1772967,33.6417556 33.2813042,33.4363993 C33.0604339,32.6996697 32.95,31.9208748 32.95,31.1 C32.95,29.3999915 33.349996,27.6583422 34.15,25.875 C34.950004,24.0916578 36.01666,22.4583407 37.35,20.975 C38.68334,19.4916592 40.2083247,18.2750047 41.925,17.325 C43.6416752,16.3749952 45.4166575,15.9 47.25,15.9 C47.8166695,15.9 48.3749972,15.966666 48.925,16.1 C49.4750027,16.233334 49.9666645,16.4499985 50.4,16.75 C50.8333355,17.0500015 51.1916653,17.4583308 51.475,17.975 C51.7583348,18.4916692 51.9,19.1333295 51.9,19.9 C51.9,21.0000055 51.6250028,21.716665 51.075,22.05 C50.5249973,22.383335 49.950003,22.55 49.35,22.55 C48.749997,22.55 48.3333345,22.4250012 48.1,22.175 C47.8666655,21.9249987 47.75,21.633335 47.75,21.3 C47.75,20.899998 47.816666,20.5750013 47.95,20.325 C48.083334,20.0749988 48.2416657,19.850001 48.425,19.65 C48.6083342,19.449999 48.766666,19.2250012 48.9,18.975 C49.033334,18.7249987 49.1,18.400002 49.1,18 C49.1,17.466664 48.9083352,17.100001 48.525,16.9 C48.1416648,16.699999 47.61667,16.6 46.95,16.6 C45.883328,16.6 44.883338,16.866664 43.95,17.4 C43.016662,17.933336 42.1583372,18.6416623 41.375,19.525 C40.5916628,20.4083377 39.900003,21.416661 39.3,22.55 C38.699997,23.683339 38.1833355,24.849994 37.75,26.05 C37.3166645,27.250006 36.9916678,28.4333275 36.775,29.6 C36.5583323,30.7666725 36.45,31.8333285 36.45,32.8 C36.45,34.2333405 36.8583292,35.449995 37.675,36.45 C38.4916708,37.450005 39.7499915,37.95 41.45,37.95 C42.383338,37.95 43.2416627,37.7750018 44.025,37.425 C44.8083373,37.0749983 45.5166635,36.633336 46.15,36.1 C46.7833365,35.566664 47.333331,34.9916698 47.8,34.375 C48.226922,33.8108531 48.5840962,33.2955333 48.8715315,32.8290277 L60.5,0.7 L55.95,0.7 L56.15,0 L64.05,0 L55.7,22.65 L55.8,22.65 C56.3000025,21.98333 56.88333,21.2750037 57.55,20.525 C58.21667,19.7749963 58.949996,19.0833365 59.75,18.45 C60.550004,17.8166635 61.3916622,17.2916687 62.275,16.875 C63.1583377,16.4583313 64.0499955,16.25 64.95,16.25 C66.350007,16.25 67.4583293,16.6249962 68.275,17.375 C69.0916707,18.1250038 69.5,19.0499945 69.5,20.15 C69.5,20.7166695 69.4083342,21.2749973 69.225,21.825 C69.0416657,22.3750028 68.816668,23.0333295 68.55,23.8 L65.3,33.05 C65.099999,33.6166695 64.9166675,34.1749972 64.75,34.725 C64.5833325,35.2750027 64.5,35.816664 64.5,36.35 C64.5,36.750002 64.5833325,37.116665 64.75,37.45 C64.9166675,37.783335 65.266664,37.95 65.8,37.95 C66.400003,37.95 66.9499975,37.783335 67.45,37.45 C67.9500025,37.116665 68.4083312,36.716669 68.825,36.25 C69.2416687,35.783331 69.5999985,35.2916692 69.9,34.775 C70.02814,34.5543144 70.1441166,34.3473132 70.2479303,34.1539953 C70.1846679,33.9968591 70.1270245,33.8371941 70.075,33.675 C69.7916652,32.7916623 69.65,31.9333375 69.65,31.1 C69.65,29.433325 70.0583292,27.7083422 70.875,25.925 C71.6916708,24.1416577 72.7583267,22.5083408 74.075,21.025 C75.3916732,19.5416593 76.883325,18.3166715 78.55,17.35 C80.216675,16.3833285 81.916658,15.9 83.65,15.9 C84.31667,15.9 84.98333,15.9749992 85.65,16.125 C86.31667,16.2750008 86.916664,16.4999985 87.45,16.8 C87.983336,17.1000015 88.416665,17.483331 88.75,17.95 C89.083335,18.416669 89.25,18.98333 89.25,19.65 C89.25,20.5500045 89.0083358,21.3416633 88.525,22.025 C88.0416642,22.7083368 87.4166705,23.2916642 86.65,23.775 C85.8833295,24.2583358 85.0416713,24.666665 84.125,25 C83.2083288,25.333335 82.316671,25.5916658 81.45,25.775 C80.583329,25.9583343 79.7916703,26.0916663 79.075,26.175 C78.3583297,26.2583338 77.833335,26.3 77.5,26.3 C76.9333305,26.3 76.383336,26.2833335 75.85,26.25 C75.316664,26.2166665 74.850002,26.166667 74.45,26.1 C74.0833315,27.166672 73.7750013,28.2249948 73.525,29.275 C73.2749988,30.3250053 73.15,31.4333275 73.15,32.6 C73.15,34.400009 73.616662,35.7416622 74.55,36.625 C75.483338,37.5083378 76.6666595,37.95 78.1,37.95 C79.166672,37.95 80.1083292,37.7416688 80.925,37.325 C81.7416708,36.9083313 82.4583303,36.4166695 83.075,35.85 C83.6916698,35.2833305 84.2083313,34.7083363 84.625,34.125 C85.0416687,33.5416637 85.383332,33.083335 85.65,32.75 L86.25,33.1 C86.049999,33.3333345 85.750002,33.7583302 85.35,34.375 C84.949998,34.9916698 84.4000035,35.6083302 83.7,36.225 C82.9999965,36.8416697 82.1416718,37.3916643 81.125,37.875 C80.1083282,38.3583357 78.8833405,38.6 77.45,38.6 C76.0166595,38.6 74.8083383,38.366669 73.825,37.9 C72.8416617,37.433331 72.0416697,36.833337 71.425,36.1 C71.086219,35.6971252 70.7977418,35.2716183 70.5595662,34.8234752 Z M28.15,23.1 C28.550002,22.033328 28.8083327,21.2750023 28.925,20.825 C29.0416672,20.3749977 29.1,19.983335 29.1,19.65 C29.1,19.3499985 29.0583337,19.0250018 28.975,18.675 C28.8916663,18.3249983 28.7416677,18.0000015 28.525,17.7 C28.3083322,17.3999985 28.0166685,17.1416678 27.65,16.925 C27.2833315,16.7083323 26.800003,16.6 26.2,16.6 C25.0999945,16.6 24.0250052,16.9083303 22.975,17.525 C21.9249947,18.1416698 20.9416713,18.949995 20.025,19.95 C19.1083287,20.950005 18.2666705,22.0916603 17.5,23.375 C16.7333295,24.6583397 16.0750028,25.9583267 15.525,27.275 C14.9749973,28.5916732 14.5500015,29.8666605 14.25,31.1 C13.9499985,32.3333395 13.8,33.416662 13.8,34.35 C13.8,35.416672 14.0083313,36.28333 14.425,36.95 C14.8416687,37.61667 15.5333285,37.95 16.5,37.95 C17.4666715,37.95 18.449995,37.650003 19.45,37.05 C20.450005,36.449997 21.3666625,35.7333375 22.2,34.9 C23.0333375,34.0666625 23.749997,33.2333375 24.35,32.4 C24.950003,31.5666625 25.3333325,30.916669 25.5,30.45 L28.15,23.1 Z M86.15,19 C86.15,18.33333 85.950002,17.766669 85.55,17.3 C85.149998,16.833331 84.483338,16.6 83.55,16.6 C82.5166615,16.6 81.5250047,16.899997 80.575,17.5 C79.6249952,18.100003 78.7666705,18.8416623 78,19.725 C77.2333295,20.6083377 76.5666695,21.5583282 76,22.575 C75.4333305,23.5916717 75.0000015,24.533329 74.7,25.4 C75.4666705,25.533334 76.316662,25.6 77.25,25.6 C78.450006,25.6 79.583328,25.4166685 80.65,25.05 C81.716672,24.6833315 82.6583293,24.200003 83.475,23.6 C84.2916707,22.999997 84.9416643,22.300004 85.425,21.5 C85.9083357,20.699996 86.15,19.866671 86.15,19 Z" id="tâche" fill="#6B1C23"></path>
        <path d="M21.4201186,12.599986 C21.2174298,12.619076 21.2838784,13.1158106 21.8991376,13.5691983 C22.5143968,14.0225859 23.7446557,14.4950635 25.1706454,14.1673518 C25.9422995,13.9790107 26.6889605,13.5978265 27.3332286,13.0633131 C27.7624644,13.5981374 28.3560699,13.979373 29.0522799,14.1673518 C30.0838576,14.4504775 31.2752818,14.2781619 32.3520834,13.6901016 C33.1510754,13.236714 33.6561524,12.6270301 33.4611327,12.6079401 C33.2661131,12.5888501 33.396021,12.8449744 32.5860036,13.1710953 C31.7759861,13.4972162 31.0874549,12.4186309 31.0360057,12.3104542 C30.9845566,12.2022775 30.1808235,10.7864354 29.0386049,10.7864354 C28.1779638,10.7864354 27.7938253,11.2811847 27.6574386,11.5245823 C27.6188335,11.2811847 27.4334536,10.7864354 26.5728125,10.7864354 C25.429003,10.7864354 24.0612479,12.2022775 23.9631587,12.3104542 C23.8650694,12.4186309 22.7464204,13.4892621 22.0674174,13.1631411 C21.3884144,12.8370202 21.6224879,12.5824868 21.4201186,12.599986 Z" id="Shape" fill="#6B1C23" fill-rule="nonzero"></path>
    </g>
</svg>